#!OML:ASF H:\ManfredETheater\Project 1\Capture day 1\Session 1\subject.ASF
:FULLY-SPECIFIED
:DEGREES
349
root 1.39163 17.6817 -30.0033 -167.032 -1.94599 -179.593
lowerback 4.40616 -0.0900636 1.10034
upperback -4.16346 -0.0549807 2.42706
thorax -6.81456 -0.0853091 1.93372
lowerneck -19.0979 -2.9533 -3.2958
upperneck 18.2536 -3.47979 0.831608
head 8.94335 -1.83849 0.355485
rclavicle -7.65321e-015 4.13472e-014
rhumerus -39.243 -5.29472 -82.6539
rradius 42.0262
rwrist -2.8022
rhand -20.8238 -11.2808
rfingers 7.12502
rthumb 5.54445 -41.1882
lclavicle -7.65321e-015 4.13472e-014
lhumerus -38.4915 5.35272 86.6578
lradius 35.5674
lwrist -11.1779
lhand -5.27609 6.89811
lfingers 7.12502
lthumb 20.5281 35.8328
rfemur -11.7634 -1.34408 19.8979
rtibia 29.1307
rfoot -21.9743 -16.2176
rtoes -34.1785
lfemur -18.2845 -5.67983 -20.1486
ltibia 38.5555
lfoot -29.6115 0.31611
ltoes 8.59001
350
root 1.37736 17.664 -30.0811 -166.742 -1.99913 -179.655
lowerback 4.40959 -0.0937498 1.05545
upperback -4.17156 -0.0627546 2.42864
thorax -6.82495 -0.0867977 1.96156
lowerneck -19.0997 -2.95465 -3.30467
upperneck 18.1971 -3.47811 0.844649
head 8.92459 -1.83544 0.362155
rclavicle -5.46658e-015 2.70347e-014
rhumerus -39.2426 -5.06983 -82.8662
rradius 42.3176
rwrist -2.8982
rhand -20.8245 -11.2617
rfingers 7.12502
rthumb 5.5438 -41.1691
lclavicle -5.46658e-015 2.70347e-014
lhumerus -38.5306 5.26803 86.6361
lradius 35.6696
lwrist -11.0831
lhand -5.36169 6.93949
lfingers 7.12502
lthumb 20.4459 35.883
rfemur -11.822 -1.34741 19.8259
rtibia 29.2204
rfoot -22.1455 -16.461
rtoes -34.3027
lfemur -18.3161 -5.68854 -20.2471
ltibia 38.5709
lfoot -29.8778 0.342515
ltoes 8.4806
351
root 1.36281 17.6453 -30.1602 -166.443 -2.05049 -179.719
lowerback 4.41322 -0.0982488 1.01258
upperback -4.18426 -0.0716775 2.42781
thorax -6.84031 -0.0890675 1.98595
lowerneck -19.0979 -2.95535 -3.31513
upperneck 18.1437 -3.47653 0.862113
head 8.90641 -1.8322 0.370582
rclavicle -3.57812e-015 -4.13472e-014
rhumerus -39.2457 -4.84405 -83.0798
rradius 42.6172
rwrist -2.99158
rhand -20.8244 -11.2459
rfingers 7.12502
rthumb 5.54389 -41.1534
lclavicle -3.57812e-015 -4.13472e-014
lhumerus -38.5741 5.1741 86.616
lradius 35.7776
lwrist -10.9872
lhand -5.43858 6.97839
lfingers 7.12502
lthumb 20.372 35.9298
rfemur -11.8943 -1.36925 19.7511
rtibia 29.3323
rfoot -22.3288 -16.6862
rtoes -34.4086
lfemur -18.3535 -5.69424 -20.3492
ltibia 38.5922
lfoot -30.1474 0.36676
ltoes 8.37802
352
root 1.34791 17.6255 -30.2411 -166.141 -2.10404 -179.779
lowerback 4.42098 -0.103975 0.980586
upperback -4.20198 -0.0815778 2.42591
thorax -6.86337 -0.0924771 2.00335
lowerneck -19.0875 -2.95543 -3.32722
upperneck 18.0939 -3.47499 0.881877
head 8.88801 -1.82909 0.380113
rclavicle 3.37934e-015 1.98785e-014
rhumerus -39.2592 -4.6166 -83.2942
rradius 42.9303
rwrist -3.08596
rhand -20.8243 -11.2308
rfingers 7.12502
rthumb 5.54395 -41.1383
lclavicle 3.37934e-015 1.98785e-014
lhumerus -38.6223 5.06384 86.6006
lradius 35.89
lwrist -10.8841
lhand -5.50526 7.02093
lfingers 7.12502
lthumb 20.3079 35.9792
rfemur -11.9761 -1.41936 19.6796
rtibia 29.4709
rfoot -22.5241 -16.8921
rtoes -34.5084
lfemur -18.3892 -5.69512 -20.448
ltibia 38.6191
lfoot -30.4247 0.385927
ltoes 8.27304
353
root 1.3329 17.6046 -30.3238 -165.84 -2.15622 -179.838
lowerback 4.42969 -0.108305 0.952914
upperback -4.22148 -0.0894001 2.4224
thorax -6.88894 -0.0951334 2.01647
lowerneck -19.0591 -2.95737 -3.34764
upperneck 18.0421 -3.47592 0.906683
head 8.86607 -1.82745 0.39261
rclavicle 6.95746e-015 -8.74653e-015
rhumerus -39.2846 -4.39037 -83.5058
rradius 43.2583
rwrist -3.18097
rhand -20.8263 -11.2167
rfingers 7.12502
rthumb 5.54203 -41.1242
lclavicle 6.95746e-015 -8.74653e-015
lhumerus -38.6738 4.93447 86.5937
lradius 36.0071
lwrist -10.7791
lhand -5.55443 7.07263
lfingers 7.12502
lthumb 20.2606 36.0359
rfemur -12.066 -1.49305 19.6074
rtibia 29.6443
rfoot -22.7324 -17.0815
rtoes -34.6117
lfemur -18.4163 -5.69053 -20.548
ltibia 38.6505
lfoot -30.7091 0.398793
ltoes 8.17924
354
root 1.31753 17.5824 -30.4082 -165.542 -2.20361 -179.899
lowerback 4.44146 -0.114903 0.926555
upperback -4.23777 -0.0999667 2.41795
thorax -6.91278 -0.0991159 2.02813
lowerneck -19.0304 -2.95568 -3.36582
upperneck 17.9888 -3.47172 0.928189
head 8.84336 -1.82361 0.404303
rclavicle 7.85199e-015 9.54166e-015
rhumerus -39.3122 -4.15553 -83.7213
rradius 43.6078
rwrist -3.27498
rhand -20.8309 -11.1999
rfingers 7.12502
rthumb 5.53761 -41.1076
lclavicle 7.85199e-015 9.54166e-015
lhumerus -38.7231 4.79335 86.5923
lradius 36.137
lwrist -10.6666
lhand -5.59376 7.12518
lfingers 7.12502
lthumb 20.2228 36.0925
rfemur -12.1723 -1.6016 19.5298
rtibia 29.8647
rfoot -22.9542 -17.2442
rtoes -34.7347
lfemur -18.4342 -5.67525 -20.653
ltibia 38.6828
lfoot -30.9994 0.405485
ltoes 8.08589
